<?xml version="1.0" encoding="UTF-8"?>
<svg version="1.1" xmlns="http://www.w3.org/2000/svg" width="512" height="512">
<path d="M0 0 C3.50623073 2.83661975 6.7819976 5.84189274 10 9 C10.62777344 9.60328125 11.25554687 10.2065625 11.90234375 10.828125 C25.65498167 25.1732802 30.50276628 45.27902964 30.21484375 64.578125 C29.52280344 84.43667308 20.01574504 102.28641861 6 116 C3.08825658 118.46548229 0.10475769 120.78336449 -3 123 C0.34084759 125.22723172 3.82157244 126.69380776 7.5 128.25 C19.72936085 133.54336673 30.3077976 140.10181838 41 148 C41.41507812 147.6596875 41.83015625 147.319375 42.2578125 146.96875 C51.59737349 139.62214972 62.31625096 134.12032212 73 129 C72.29875 128.36835938 71.5975 127.73671875 70.875 127.0859375 C57.49956952 114.47377886 50.81221147 100.54272839 49.9453125 81.9609375 C50.17654509 65.21309109 56.18867801 50.52963887 68.1015625 38.62890625 C82.20235569 25.83937281 98.12213957 21.92428086 116.66992188 22.80908203 C130.19817379 23.91753687 143.87626677 30.95838616 153 41 C158.58861356 48.09502853 163.31993437 55.29348845 166 64 C166.33451172 64.98226562 166.33451172 64.98226562 166.67578125 65.984375 C170.89188279 80.78375185 168.09077826 97.17962782 161.375 110.6875 C157.34633096 117.63205993 151.70936142 124.52709239 145 129 C146.02738281 129.49628906 147.05476563 129.99257812 148.11328125 130.50390625 C161.68111568 137.12192137 173.21322966 144.36119633 184 155 C184.80566406 155.79277344 185.61132812 156.58554687 186.44140625 157.40234375 C206.82628672 178.70897533 212 205.26743575 212 234 C171.08 234.33 130.16 234.66 88 235 C88 245.89 88 256.78 88 268 C82.69542484 285.23986926 75.62157551 297.02760791 60 306 C48.75869679 311.92262769 37.83099875 312.29606803 25.37963867 312.2746582 C23.70321934 312.27901118 22.026802 312.28419627 20.35038757 312.29014587 C15.81717892 312.30348525 11.2840539 312.30412012 6.75082946 312.30158257 C2.95640598 312.30050925 -0.83800083 312.30540553 -4.63242072 312.310188 C-13.59032779 312.32126604 -22.54819292 312.32173041 -31.50610352 312.31567383 C-40.72365231 312.30963715 -49.94104833 312.3219412 -59.15857106 312.3432439 C-67.09349148 312.36090286 -75.02836347 312.36685443 -82.96330279 312.36360615 C-87.69312013 312.36179973 -92.42282853 312.36436498 -97.15262794 312.37832069 C-101.60393198 312.39096425 -106.05499926 312.38889368 -110.50629997 312.37590981 C-112.13156339 312.37355849 -113.75684381 312.37622634 -115.38208771 312.38453293 C-133.82528895 312.47193237 -148.97286758 308.69803284 -162.59375 295.56640625 C-171.77058082 285.77877987 -177.12030909 273.48513639 -177.1328125 260.0546875 C-177.13376923 259.40299591 -177.13472595 258.75130432 -177.13571167 258.0798645 C-177.13638897 256.70998029 -177.13456624 255.3400928 -177.13037109 253.97021484 C-177.12499898 251.87460146 -177.13034018 249.77920069 -177.13671875 247.68359375 C-177.13605823 246.34895786 -177.1347776 245.01432211 -177.1328125 243.6796875 C-177.13168457 242.47038574 -177.13055664 241.26108398 -177.12939453 240.01513672 C-177 237 -177 237 -176 234 C-216.92 234 -257.84 234 -300 234 C-300 200.27126034 -292.34423612 176.16505417 -269.25 151.875 C-259.20177644 142.10503494 -247.52640343 135.92322092 -235 130 C-234.34 129.67 -233.68 129.34 -233 129 C-233.49628906 128.59910156 -233.99257812 128.19820312 -234.50390625 127.78515625 C-246.02450409 118.14458007 -253.85800519 106.04377752 -256 91 C-257.46558396 71.75624541 -253.44812808 55.55720476 -240.6171875 40.609375 C-233.40875773 33.42246293 -224.75344347 27.99723815 -215 25 C-214.33355469 24.77699219 -213.66710937 24.55398437 -212.98046875 24.32421875 C-197.15539318 19.87625296 -180.58396807 23.46899139 -166.3984375 30.921875 C-153.11275708 39.04599222 -144.16304372 51.05822293 -140 66 C-136.40550876 82.66389986 -138.32698631 98.78183699 -147.125 113.5625 C-151.0144675 119.44330706 -155.84850121 124.221648 -161 129 C-160.48203857 129.26103516 -159.96407715 129.52207031 -159.43041992 129.79101562 C-141.18316014 139.04120791 -141.18316014 139.04120791 -133.12890625 145.69921875 C-131.14119683 147.17698372 -131.14119683 147.17698372 -129.0703125 146.95703125 C-126.2072383 145.63353468 -123.85127068 143.87238401 -121.3125 142 C-110.53369108 134.29572543 -98.68609147 127.91816648 -86 124 C-88.50717018 121.4427976 -91.07007269 119.05118137 -93.8125 116.75 C-108.22604036 104.09485828 -117.76378265 86.29851733 -119.14160156 67.01855469 C-120.22659991 46.93240877 -114.95150428 27.53126178 -101.7578125 11.94140625 C-101.17773438 11.30074219 -100.59765625 10.66007812 -100 10 C-99.41992188 9.32839844 -98.83984375 8.65679687 -98.2421875 7.96484375 C-73.08662191 -19.3484168 -29.34721911 -20.75435335 0 0 Z M-88.4453125 22.7578125 C-93.67448003 29.36761832 -97.33667107 36.01001322 -100 44 C-100.24492187 44.73476562 -100.48984375 45.46953125 -100.7421875 46.2265625 C-104.512242 60.01566595 -102.26734911 75.9138832 -95.3125 88.3125 C-91.76547886 93.69573158 -87.50987831 98.41044186 -83 103 C-82.15308594 103.86625 -82.15308594 103.86625 -81.2890625 104.75 C-71.42582496 113.98776394 -57.87449095 117.82170657 -44.625 118.4375 C-27.23373057 117.84753068 -12.89124784 110.48395801 -1 98 C9.2228655 85.92544565 13.56630712 71.64745425 12.875 55.9375 C11.28033632 39.42264968 3.24093372 25.64341532 -9.37890625 14.9921875 C-34.06418623 -3.31375046 -67.85362035 -0.4654058 -88.4453125 22.7578125 Z M-229.40234375 53.9453125 C-237.9528337 64.94178613 -240.26583559 76.41573878 -239 90 C-236.88719162 100.37426869 -230.78436971 109.78128981 -222.0390625 115.7578125 C-211.10514147 122.41870692 -199.67554043 125.14470418 -186.8984375 122.3125 C-175.74491167 118.54229409 -165.87838682 111.56429787 -160.42578125 100.9296875 C-155.33944245 89.06642164 -154.42745941 78.5774708 -158.61328125 66.2109375 C-163.32273157 55.30623845 -171.35335977 47.14705346 -182.3125 42.625 C-199.20411205 36.36884739 -217.04621488 40.80049456 -229.40234375 53.9453125 Z M76.75390625 54.7890625 C70.68680807 62.43711944 67.60320479 71.48754041 67.625 81.1875 C67.62661133 81.93491455 67.62822266 82.6823291 67.62988281 83.45239258 C67.82706249 92.42503459 70.5400643 99.83383439 76 107 C76.53625 107.804375 77.0725 108.60875 77.625 109.4375 C85.16882352 117.57688853 94.70176752 122.25481205 105.7109375 123.37890625 C118.66742561 123.78626034 129.42030033 120.09068679 138.9375 111.1875 C147.11306104 102.44810716 151.57192955 91.6615274 151.2421875 79.69921875 C150.19576034 68.03661925 145.79146333 58.1890385 137.1875 50.125 C118.11507168 34.71181665 93.37393476 37.26248698 76.75390625 54.7890625 Z M-119 162 C-119.84820312 162.68449219 -120.69640625 163.36898437 -121.5703125 164.07421875 C-143.03765376 182.27771659 -157.09938498 210.13438286 -160 238 C-160.33594574 242.66827453 -160.49354815 247.32057471 -160.5625 252 C-160.58948975 253.10915771 -160.61647949 254.21831543 -160.64428711 255.36108398 C-160.59519654 265.77841407 -157.27275402 276.27021499 -150 284 C-141.24254304 292.10948369 -130.93167859 295.11081731 -119.17111206 295.14044189 C-118.50883327 295.14341302 -117.84655447 295.14638414 -117.16420662 295.1494453 C-114.95825361 295.15807529 -112.75235523 295.15963569 -110.54638672 295.16113281 C-108.95907985 295.1657651 -107.37177409 295.17079031 -105.7844696 295.17617798 C-101.48043784 295.18926613 -97.17642165 295.19574016 -92.8723731 295.20018864 C-90.17902386 295.20312572 -87.48567882 295.20723177 -84.7923317 295.21169281 C-76.35293564 295.22535955 -67.91354926 295.23502971 -59.47414291 295.2388947 C-49.7557147 295.24337074 -40.03742746 295.26090101 -30.31904209 295.2898953 C-22.79182904 295.31156706 -15.2646555 295.32160194 -7.73741162 295.32293582 C-3.24898735 295.3239801 1.23930425 295.32980701 5.72769547 295.34775543 C9.9548779 295.36433098 14.18182931 295.36634602 18.40903282 295.35761642 C19.95205877 295.35685104 21.49509762 295.36112216 23.03809166 295.37107468 C37.36538977 295.45799484 49.45711972 294.08604176 60.19140625 283.92578125 C71.0691735 272.44703239 71.45964444 260.53979384 71.27734375 245.43359375 C70.33665104 213.97888887 55.15303273 185.94283526 32.828125 164.484375 C27.62437391 159.64525111 22.09549297 155.67320335 16 152 C15.42846191 151.65388672 14.85692383 151.30777344 14.26806641 150.95117188 C-27.91260387 125.81635271 -81.38352877 130.87100714 -119 162 Z M-252 160 C-252.80953125 160.66644531 -253.6190625 161.33289063 -254.453125 162.01953125 C-271.109928 176.1982516 -280.60286106 195.42574952 -283 217 C-246.7 217 -210.4 217 -173 217 C-170.69 210.4 -168.38 203.8 -166 197 C-160.07589967 184.96373267 -153.61723083 173.25166814 -144.15234375 163.62109375 C-143.77207031 163.08613281 -143.39179688 162.55117188 -143 162 C-144.32392236 158.02823293 -146.79764614 156.81862634 -150.1875 154.6875 C-150.81390381 154.29159668 -151.44030762 153.89569336 -152.08569336 153.48779297 C-183.01015569 134.44843521 -224.15559739 135.7631751 -252 160 Z M70 150 C68.94425781 150.56074219 67.88851563 151.12148438 66.80078125 151.69921875 C61.49567953 154.64934166 57.60682899 157.02035903 54 162 C55.06927734 163.32451172 55.06927734 163.32451172 56.16015625 164.67578125 C69.1284402 180.85549708 77.43664425 197.30993275 84 217 C120.63 217 157.26 217 195 217 C190.80686978 196.03434889 184.75910034 181.42879774 170 166 C169.06220703 164.95005859 169.06220703 164.95005859 168.10546875 163.87890625 C154.88422842 149.59996669 134.54037313 141.56798243 115.34375 140.68359375 C98.9205768 140.22547297 84.6942417 142.19032249 70 150 Z " fill="#000000" transform="translate(300,107)"/>
</svg>
